<svg width="100" height="100" viewBox="0 0 100 100" fill="none" xmlns="http://www.w3.org/2000/svg">
<path d="M77.9365 95.6314C77.9365 97.3946 76.5075 98.8236 74.7444 98.8236H25.2558C23.4926 98.8236 22.0636 97.3946 22.0636 95.6314V4.36867C22.0636 2.60553 23.4926 1.17651 25.2558 1.17651H74.7444C76.5075 1.17651 77.9365 2.60553 77.9365 4.36867V95.6314Z" fill="white"/>
<path d="M70.5671 95.6314C70.5671 97.3946 69.5161 98.8236 68.2173 98.8236H31.7812C30.4855 98.8236 29.433 97.3946 29.433 95.6314V4.36867C29.433 2.60553 30.4855 1.17651 31.7812 1.17651H68.2165C69.5153 1.17651 70.5663 2.60553 70.5663 4.36867V95.6314H70.5671Z" fill="#BCCAD3"/>
<path d="M77.9365 10.4211H22.0636V86.2517H77.9365V10.4211Z" fill="#00AAFF"/>
<path d="M71.6683 10.4211H28.4573V86.2517H71.6683V10.4211Z" fill="#0068FF"/>
<path d="M74.7443 0H25.2557C22.8471 0 20.8871 1.96 20.8871 4.36863V10.1561V85.9851V95.6314C20.8871 98.04 22.8471 100 25.2557 100H74.7443C77.153 100 79.113 98.04 79.113 95.6314V85.9851V10.1561V4.36863C79.113 1.96 77.153 0 74.7443 0ZM25.2557 2.35294H74.7443C75.8557 2.35294 76.76 3.25726 76.76 4.36863V8.97961H23.24V4.36863C23.24 3.25726 24.1443 2.35294 25.2557 2.35294ZM76.76 84.8086H23.24V11.3325H76.76V84.8086ZM74.7443 97.6471H25.2557C24.1443 97.6471 23.24 96.7427 23.24 95.6314V87.1616H76.76V95.6314C76.76 96.7427 75.8557 97.6471 74.7443 97.6471Z" fill="#33363A"/>
<path d="M54.698 96.2314H45.3019C43.1733 96.2314 41.4415 94.4996 41.4415 92.371C41.4415 90.2416 43.1733 88.509 45.3019 88.509H54.698C56.8266 88.509 58.5584 90.2416 58.5584 92.371C58.5584 94.4996 56.8266 96.2314 54.698 96.2314ZM45.3019 90.8628C44.4705 90.8628 43.7945 91.5396 43.7945 92.3718C43.7945 93.2032 44.4705 93.8792 45.3019 93.8792H54.698C55.5294 93.8792 56.2055 93.2032 56.2055 92.3718C56.2055 91.5396 55.5294 90.8628 54.698 90.8628H45.3019Z" fill="#33363A"/>
<path d="M69.4227 7.55214C68.2949 7.55214 67.3765 6.6345 67.3765 5.50665C67.3765 4.37803 68.2949 3.45959 69.4227 3.45959C70.5506 3.45959 71.469 4.37803 71.469 5.50665C71.469 6.6345 70.5506 7.55214 69.4227 7.55214ZM69.4227 5.1992C69.2533 5.1992 69.1161 5.33724 69.1161 5.50665C69.1161 5.67528 69.2533 5.81254 69.4227 5.81254C69.5922 5.81254 69.7294 5.67528 69.7294 5.50665C69.7286 5.3341 69.5937 5.1992 69.4227 5.1992Z" fill="#33363A"/>
<path d="M55.5208 6.88077H44.4792C43.8298 6.88077 43.3027 6.3545 43.3027 5.7043C43.3027 5.05411 43.8298 4.52783 44.4792 4.52783H55.5208C56.1702 4.52783 56.6972 5.05411 56.6972 5.7043C56.6972 6.3545 56.1702 6.88077 55.5208 6.88077Z" fill="#33363A"/>
<path d="M69.6479 48.3341C69.6479 59.1875 60.8502 67.9843 50 67.9843C39.1482 67.9843 30.3522 59.1875 30.3522 48.3341C30.3522 37.4839 39.1482 28.6879 50 28.6879C60.8502 28.6879 69.6479 37.4839 69.6479 48.3341Z" fill="#FF8F8F"/>
<path d="M69.6479 48.3341C69.6479 56.647 60.8502 63.3851 50 63.3851C39.1482 63.3851 30.3522 56.6463 30.3522 48.3341C30.3522 40.0251 39.1482 33.2863 50 33.2863C60.8502 33.2863 69.6479 40.0251 69.6479 48.3341Z" fill="#FF1A1A"/>
<path d="M30.3522 48.3341C30.3522 59.1874 39.1482 67.9843 50 67.9843C60.8502 67.9843 69.6479 59.1874 69.6479 48.3341H30.3522Z" fill="white"/>
<path d="M50 63.3851C60.8502 63.3851 69.6479 56.6463 69.6479 48.3341H30.3522C30.3522 56.647 39.1482 63.3851 50 63.3851Z" fill="#D8E5EA"/>
<path d="M50 27.5114C38.5168 27.5114 29.1757 36.8525 29.1757 48.3341C29.1757 59.818 38.5168 69.1608 50 69.1608C61.4831 69.1608 70.8243 59.818 70.8243 48.3341C70.8243 36.8525 61.4831 27.5114 50 27.5114ZM50 29.8643C59.7898 29.8643 67.8204 37.52 68.4298 47.1576H31.5702C32.1796 37.52 40.2102 29.8643 50 29.8643ZM50 66.8078C40.2102 66.8078 32.1796 59.1506 31.5702 49.5106H68.4298C67.8204 59.1506 59.7898 66.8078 50 66.8078Z" fill="#33363A"/>
<path d="M54.5922 45.9922C57.1302 48.5318 57.1302 52.6424 54.5922 55.1805C52.0557 57.7177 47.9436 57.7177 45.4055 55.1805C42.8691 52.6424 42.8691 48.5318 45.4055 45.9922C47.9444 43.4565 52.0557 43.4565 54.5922 45.9922Z" fill="#A7BBC1"/>
<path d="M54.5922 43.7844C57.1302 46.3209 57.1302 50.4346 54.5922 52.9726C52.0557 55.5067 47.9436 55.5067 45.4055 52.9726C42.8691 50.4346 42.8691 46.3216 45.4055 43.7844C47.9444 41.2463 52.0557 41.2463 54.5922 43.7844Z" fill="white"/>
<path d="M45.4063 52.9726C42.8698 50.4346 42.8698 46.3216 45.4063 43.7844C47.9443 41.2463 52.0565 41.2463 54.5929 43.7844" fill="#D8E5EA"/>
<path d="M50 56.0455C48.0353 56.0455 46.0706 55.2989 44.5749 53.8055C41.5836 50.8118 41.5836 45.9443 44.5741 42.953C46.0243 41.5028 47.9514 40.7043 50 40.7043C52.0486 40.7043 53.9749 41.5028 55.4243 42.9522C56.8745 44.4016 57.6722 46.3279 57.6722 48.3773C57.6722 50.4267 56.8737 52.3538 55.4243 53.8032C53.9294 55.2981 51.9647 56.0455 50 56.0455ZM50 43.0573C48.5788 43.0573 47.2432 43.611 46.2377 44.6165C44.1639 46.6902 44.1639 50.0659 46.2377 52.1412C48.313 54.2134 51.6894 54.2126 53.7608 52.1412C54.7663 51.1357 55.3192 49.8 55.3192 48.3789C55.3192 46.9577 54.7663 45.622 53.7608 44.6173C52.7561 43.611 51.4204 43.0573 50 43.0573Z" fill="#33363A"/>
</svg>
