<svg width="100" height="100" viewBox="0 0 100 100" fill="none" xmlns="http://www.w3.org/2000/svg">
<g id="mouse 1" clip-path="url(#clip0)">
<g id="Page-1">
<g id="038---Gaming-Mouse">
<path id="Shape" d="M78.7966 31.4238H78.8136V71.1866C78.8136 87.0999 65.9133 100 50 100C34.0867 100 21.1865 87.0999 21.1865 71.1866V31.4238H78.7966Z" fill="#3F5C6C"/>
<path id="Shape_2" d="M50 15.2542C49.0639 15.2542 48.3051 14.4954 48.3051 13.5593V1.69492C48.3051 0.758839 49.0639 0 50 0C50.9361 0 51.6949 0.758839 51.6949 1.69492V13.5593C51.6949 14.4954 50.9361 15.2542 50 15.2542Z" fill="#35495E"/>
<path id="Shape_3" d="M78.8136 24.8641C78.8136 27.0506 78.8136 29.254 78.7966 31.4235C78.6102 59.7285 76.3729 86.4404 50 86.4404C23.6271 86.4404 21.3899 59.7285 21.2034 31.4235C21.1865 29.254 21.1865 27.0506 21.1865 24.8641C21.1879 24.0335 21.5459 23.2434 22.1695 22.6946L38.4407 7.5082C39.2917 6.76298 40.4999 6.58459 41.5299 7.05211C42.5599 7.51963 43.2211 8.54656 43.2204 9.67769V20.3387H56.7797V9.67769C56.779 8.54656 57.4401 7.51963 58.4701 7.05211C59.5001 6.58459 60.7084 6.76298 61.5593 7.5082L77.8305 22.6946C78.4541 23.2434 78.8121 24.0335 78.8136 24.8641Z" fill="#4482C3"/>
<path id="Rectangle-path" d="M51.6949 13.5596H48.3051C45.4969 13.5596 43.2203 15.8361 43.2203 18.6443V30.5087C43.2203 33.3169 45.4969 35.5934 48.3051 35.5934H51.6949C54.5032 35.5934 56.7797 33.3169 56.7797 30.5087V18.6443C56.7797 15.8361 54.5032 13.5596 51.6949 13.5596Z" fill="#3F5C6C"/>
<path id="Shape_4" d="M56.7797 30.5083V43.1693C56.5474 46.6876 53.5199 49.3593 50 49.1524C48.244 49.1619 46.5425 48.5427 45.2034 47.4066C43.9651 46.3441 43.2428 44.8008 43.2203 43.1693V30.5083C43.2203 33.3165 45.4969 35.593 48.3051 35.593H51.6949C53.0435 35.593 54.3368 35.0573 55.2904 34.1038C56.244 33.1502 56.7797 31.8569 56.7797 30.5083Z" fill="#35495E"/>
<g id="Group">
<path id="Shape_5" d="M56.7797 67.7966H43.2204C42.2843 67.7966 41.5255 67.0377 41.5255 66.1017C41.5255 65.1656 42.2843 64.4067 43.2204 64.4067H56.7797C57.7158 64.4067 58.4746 65.1656 58.4746 66.1017C58.4746 67.0377 57.7158 67.7966 56.7797 67.7966Z" fill="#84B5CB"/>
<path id="Shape_6" d="M53.3899 76.2707H46.6102C45.6741 76.2707 44.9153 75.5119 44.9153 74.5758C44.9153 73.6397 45.6741 72.8809 46.6102 72.8809H53.3899C54.326 72.8809 55.0848 73.6397 55.0848 74.5758C55.0848 75.5119 54.326 76.2707 53.3899 76.2707Z" fill="#84B5CB"/>
</g>
</g>
</g>
</g>
<defs>
<clipPath id="clip0">
<rect width="100" height="100" fill="white"/>
</clipPath>
</defs>
</svg>
