<svg width="100" height="100" viewBox="0 0 100 100" fill="none" xmlns="http://www.w3.org/2000/svg">
<path d="M91.0017 26.563C88.1655 21.4328 85.2215 18.3265 84.8237 17.8252C75.9359 7.80298 62.9646 1.48438 48.5157 1.48438C37.3771 1.48438 27.1225 5.2365 18.9386 11.5412C7.41702 20.4173 4.58063 33.6385 4.58063 49.2858C4.58063 76.0803 22.3263 94.0337 49.1208 94.0337C67.8875 94.0337 84.1851 87.7501 92.2405 71.0473C92.2397 71.0479 92.2389 71.0482 92.2382 71.0488C98.9168 57.2035 98.7146 40.537 91.0017 26.563Z" fill="#B930D6"/>
<path d="M95.7388 61.1283C87.4442 67.5021 77.1278 71.1701 66.1754 71.1701C39.3809 71.1701 17.6597 49.4489 17.6597 22.6544C17.6597 18.8323 18.1038 15.113 18.9408 11.5439C7.41918 20.42 1.52588e-05 34.3526 1.52588e-05 50.0001C1.52588e-05 76.7946 21.7212 98.5158 48.5157 98.5158C67.2824 98.5158 84.1851 87.7503 92.2403 71.0475C92.2395 71.0481 92.2388 71.0484 92.238 71.049C93.7722 67.8688 94.9384 64.5391 95.7388 61.1283Z" fill="#8D1BA5"/>
<path d="M86.4259 26.6166H76.8411C75.9292 26.6166 75.1899 25.8773 75.1899 24.9655V22.8084C75.1899 21.8965 75.9292 21.1572 76.8411 21.1572H86.4259C87.3378 21.1572 88.0771 21.8965 88.0771 22.8084V24.9655C88.0771 25.8773 87.3378 26.6166 86.4259 26.6166Z" fill="#05CDFF"/>
<path d="M28.3476 26.6166H18.7628C17.8509 26.6166 17.1116 25.8773 17.1116 24.9655V22.8084C17.1116 21.8965 17.8509 21.1572 18.7628 21.1572H28.3476C29.2595 21.1572 29.9988 21.8965 29.9988 22.8084V24.9655C29.9988 25.8773 29.2597 26.6166 28.3476 26.6166Z" fill="#05CDFF"/>
<path d="M99.0541 53.3621C99.0052 53.2013 98.9544 53.0407 98.9018 52.8801L91.1247 29.1192C90.0738 25.9082 87.0778 23.7365 83.6993 23.7365H77.914C75.5517 23.7365 73.4011 25.0977 72.3901 27.2327H32.3845C31.3736 25.0977 29.2229 23.7365 26.8606 23.7365H24.9845L10.3649 59.461L26.3094 73.429C26.3204 73.4257 26.3237 73.4249 26.3349 73.4216L31.0565 56.8073H31.16C31.0111 56.4142 30.9184 55.9933 30.8989 55.5559C30.8101 53.5747 32.6486 51.8873 34.5675 51.8873H82.3691C82.3877 51.8873 82.4055 51.8899 82.424 51.8901C82.4344 51.8895 82.4448 51.8877 82.4551 51.8873C84.4364 51.7985 86.1238 53.6371 86.1238 55.5559V74.3572C95.5987 72.6419 101.978 62.971 99.0541 53.3621Z" fill="#453D49"/>
<path d="M26.0661 74.3671L26.5301 72.7347C21.5438 69.3734 18.1625 64.2336 16.9311 58.5314C16.2295 55.2822 18.7123 52.2314 22.0359 52.1772C22.0789 52.1765 22.122 52.1755 22.1652 52.1743C27.384 52.0239 31.6769 47.8219 31.9308 42.607C32.097 39.1913 30.5613 36.1267 28.0979 34.1867C24.9648 31.7191 23.7492 27.5287 24.9844 23.7367H20.8962C17.5136 23.7367 14.5152 25.9134 13.4675 29.1296L5.73029 52.8804C5.67846 53.0384 5.62839 53.1968 5.58008 53.3553C2.39124 63.8222 10.3762 74.3671 21.3181 74.3671H26.0661Z" fill="#2B282D"/>
<path d="M91.5337 72.024L87.9828 59.5288C86.9149 55.7712 87.75 51.6885 90.3306 48.7557C91.9825 46.8783 92.9468 44.381 92.8294 41.6579C92.6053 36.458 88.3609 32.2353 83.16 32.036C77.4155 31.816 72.6891 36.4078 72.6891 42.1034C72.6891 42.1382 72.6893 42.1729 72.6897 42.2077C72.7357 46.7398 69.1218 50.4565 64.5895 50.4565H40.4515L41.0807 56.807H73.5757L79.7048 78.3743C80.671 80.9771 83.621 82.2386 86.1705 81.1393C89.5103 79.699 92.344 77.551 94.5641 74.9411C93.2151 74.4968 92.0694 73.467 91.5337 72.024Z" fill="#2B282D"/>
<path d="M27.0208 70.7659L26.987 70.8852C26.0208 73.4881 23.0705 74.7496 20.5213 73.6502C10.8941 69.4985 5.46409 59.4749 6.85823 49.4177L5.73028 52.8802C2.02393 64.1751 7.54591 76.4319 18.4616 81.1394C21.011 82.2388 23.9612 80.9773 24.9272 78.3744L27.0887 70.7689C27.066 70.7681 27.0433 70.7671 27.0208 70.7659Z" fill="#2B282D"/>
<path d="M77.5598 70.7659L77.5937 70.8852C78.5599 73.4881 81.5101 74.7496 84.0594 73.6502C93.6863 69.4985 99.1163 59.4749 97.7222 49.4177L98.8502 52.8802C102.557 64.1751 97.0345 76.4319 86.1189 81.1394C83.5694 82.2388 80.6192 80.9773 79.6532 78.3744C79.6532 78.3744 77.5372 70.7671 77.5598 70.7659Z" fill="#2B282D"/>
<path d="M34.7294 46.104C32.5516 46.104 30.5623 46.911 29.0441 48.2423L34.7294 63.3566C39.4937 63.3566 43.3557 59.4944 43.3557 54.7303C43.3557 49.9662 39.4937 46.104 34.7294 46.104Z" fill="#F73C9A"/>
<path d="M36.8519 61.2891C39.1923 60.4059 40.8364 58.1048 40.7349 55.4327C40.6191 52.3812 38.1772 49.8673 35.1298 49.6698C33.8127 49.5843 32.5795 49.9236 31.5537 50.5642C30.8034 51.0324 29.91 50.1787 30.3377 49.4046C30.3512 49.3803 30.3647 49.3561 30.3784 49.3318C30.8664 48.4683 29.7901 47.5889 29.0445 48.2428C27.1741 49.8828 26.019 52.3186 26.108 55.0218C26.257 59.5508 29.9757 63.2393 34.5057 63.3541C35.3995 63.3768 36.2634 63.2634 37.0782 63.0332C37.5531 62.899 37.5019 62.2055 37.0109 62.1556C36.9965 62.154 36.982 62.1527 36.9675 62.1511C36.505 62.1014 36.4167 61.4534 36.8519 61.2891Z" fill="#E0248B"/>
<path d="M34.7294 60.7403C38.0486 60.7403 40.7394 58.0495 40.7394 54.7303C40.7394 51.4111 38.0486 48.7203 34.7294 48.7203C31.4102 48.7203 28.7195 51.4111 28.7195 54.7303C28.7195 58.0495 31.4102 60.7403 34.7294 60.7403Z" fill="#2B282D"/>
<path d="M34.7294 59.4609C37.3421 59.4609 39.4601 57.3429 39.4601 54.7303C39.4601 52.1176 37.3421 49.9996 34.7294 49.9996C32.1168 49.9996 29.9988 52.1176 29.9988 54.7303C29.9988 57.3429 32.1168 59.4609 34.7294 59.4609Z" fill="#594D5E"/>
<path d="M34.7294 57.6812C36.3591 57.6812 37.6802 56.36 37.6802 54.7303C37.6802 53.1007 36.3591 51.7795 34.7294 51.7795C33.0997 51.7795 31.7786 53.1007 31.7786 54.7303C31.7786 56.36 33.0997 57.6812 34.7294 57.6812Z" fill="#453D49"/>
<path d="M69.18 46.104C67.0021 46.104 65.0128 46.911 63.4947 48.2423L69.18 63.3566C73.9442 63.3566 77.8063 59.4944 77.8063 54.7303C77.8063 49.9662 73.944 46.104 69.18 46.104Z" fill="#F73C9A"/>
<path d="M71.3023 61.2891C73.6424 60.4059 75.2867 58.1048 75.1852 55.4327C75.0694 52.3812 72.6275 49.8673 69.5801 49.6698C68.263 49.5843 67.0299 49.9236 66.004 50.5642C65.2538 51.0324 64.3603 50.1787 64.7881 49.4046C64.8016 49.3803 64.8151 49.3561 64.8288 49.3318C65.3167 48.4683 64.2404 47.5889 63.4949 48.2428C61.6245 49.8828 60.4693 52.3186 60.5583 55.0218C60.7074 59.5508 64.426 63.2393 68.956 63.3541C69.8498 63.3768 70.7137 63.2634 71.5285 63.0332C72.0034 62.899 71.9522 62.2055 71.4613 62.1556C71.4468 62.154 71.4323 62.1527 71.4178 62.1511C70.9555 62.1014 70.8671 61.4534 71.3023 61.2891Z" fill="#E0248B"/>
<path d="M69.18 60.7403C72.4992 60.7403 75.1899 58.0495 75.1899 54.7303C75.1899 51.4111 72.4992 48.7203 69.18 48.7203C65.8607 48.7203 63.17 51.4111 63.17 54.7303C63.17 58.0495 65.8607 60.7403 69.18 60.7403Z" fill="#2B282D"/>
<path d="M69.18 59.4609C71.7926 59.4609 73.9106 57.3429 73.9106 54.7303C73.9106 52.1176 71.7926 49.9996 69.18 49.9996C66.5673 49.9996 64.4493 52.1176 64.4493 54.7303C64.4493 57.3429 66.5673 59.4609 69.18 59.4609Z" fill="#594D5E"/>
<path d="M69.1799 57.6812C70.8096 57.6812 72.1307 56.36 72.1307 54.7303C72.1307 53.1007 70.8096 51.7795 69.1799 51.7795C67.5503 51.7795 66.2291 53.1007 66.2291 54.7303C66.2291 56.36 67.5503 57.6812 69.1799 57.6812Z" fill="#453D49"/>
<path d="M21.8665 50.0453C27.4307 50.0453 31.9414 45.5346 31.9414 39.9705C31.9414 34.4063 27.4307 29.8956 21.8665 29.8956C16.3023 29.8956 11.7917 34.4063 11.7917 39.9705C11.7917 45.5346 16.3023 50.0453 21.8665 50.0453Z" fill="#2B282D"/>
<path d="M82.7624 50.0453C88.3266 50.0453 92.8373 45.5346 92.8373 39.9705C92.8373 34.4063 88.3266 29.8956 82.7624 29.8956C77.1983 29.8956 72.6876 34.4063 72.6876 39.9705C72.6876 45.5346 77.1983 50.0453 82.7624 50.0453Z" fill="#2B282D"/>
<path d="M64.8102 45.3706H40.0936C38.876 45.3706 37.8891 44.3836 37.8891 43.1661V29.7657C37.8891 28.5482 38.876 27.5613 40.0936 27.5613H64.8102C66.0277 27.5613 67.0146 28.5482 67.0146 29.7657V43.1661C67.0146 44.3836 66.0277 45.3706 64.8102 45.3706Z" fill="#453D49"/>
<path d="M33.8958 37.3937C32.9199 37.3937 32.1287 36.6025 32.1287 35.6266V33.039C32.1287 32.063 32.9199 31.2719 33.8958 31.2719C34.8718 31.2719 35.663 32.063 35.663 33.039V35.6266C35.663 36.6024 34.8718 37.3937 33.8958 37.3937Z" fill="#453D49"/>
<path d="M70.7599 37.0676C69.7839 37.0676 68.9928 36.2764 68.9928 35.3004V32.713C68.9928 31.7371 69.7839 30.9459 70.7599 30.9459C71.7359 30.9459 72.527 31.7371 72.527 32.713V35.3004C72.527 36.2764 71.7359 37.0676 70.7599 37.0676Z" fill="#453D49"/>
<path d="M64.8102 43.4982H40.0936C38.876 43.4982 37.8891 42.5113 37.8891 41.2938V27.8934C37.8891 26.6759 38.876 25.689 40.0936 25.689H64.8102C66.0277 25.689 67.0146 26.6759 67.0146 27.8934V41.2938C67.0146 42.5113 66.0277 43.4982 64.8102 43.4982Z" fill="#2B282D"/>
<path d="M42.3414 30.2703H62.514" stroke="#5AB4FF" stroke-width="5.75204" stroke-miterlimit="10" stroke-linecap="round"/>
<path d="M33.8958 35.5213C32.9199 35.5213 32.1287 34.7301 32.1287 33.7541V31.1665C32.1287 30.1906 32.9199 29.3994 33.8958 29.3994C34.8718 29.3994 35.663 30.1906 35.663 31.1665V33.7541C35.663 34.7299 34.8718 35.5213 33.8958 35.5213Z" fill="#2B282D"/>
<path d="M70.7599 35.1952C69.7839 35.1952 68.9928 34.4041 68.9928 33.4281V30.8405C68.9928 29.8645 69.7839 29.0734 70.7599 29.0734C71.7359 29.0734 72.527 29.8645 72.527 30.8405V33.4281C72.527 34.4041 71.7359 35.1952 70.7599 35.1952Z" fill="#2B282D"/>
<path d="M82.7624 37.9559C84.2034 37.9559 85.3716 36.7878 85.3716 35.3468C85.3716 33.9058 84.2034 32.7377 82.7624 32.7377C81.3215 32.7377 80.1533 33.9058 80.1533 35.3468C80.1533 36.7878 81.3215 37.9559 82.7624 37.9559Z" fill="#FFC305"/>
<path d="M82.7624 47.2033C84.2034 47.2033 85.3716 46.0352 85.3716 44.5942C85.3716 43.1533 84.2034 41.9851 82.7624 41.9851C81.3215 41.9851 80.1533 43.1533 80.1533 44.5942C80.1533 46.0352 81.3215 47.2033 82.7624 47.2033Z" fill="#BE5AB9"/>
<path d="M87.3861 42.5796C88.8271 42.5796 89.9952 41.4114 89.9952 39.9704C89.9952 38.5295 88.8271 37.3613 87.3861 37.3613C85.9451 37.3613 84.777 38.5295 84.777 39.9704C84.777 41.4114 85.9451 42.5796 87.3861 42.5796Z" fill="#F73C9A"/>
<path d="M78.1388 42.5796C79.5798 42.5796 80.7479 41.4114 80.7479 39.9704C80.7479 38.5295 79.5798 37.3613 78.1388 37.3613C76.6978 37.3613 75.5297 38.5295 75.5297 39.9704C75.5297 41.4114 76.6978 42.5796 78.1388 42.5796Z" fill="#5AB4FF"/>
<path d="M21.8446 37.9559C23.2856 37.9559 24.4537 36.7878 24.4537 35.3468C24.4537 33.9058 23.2856 32.7377 21.8446 32.7377C20.4036 32.7377 19.2355 33.9058 19.2355 35.3468C19.2355 36.7878 20.4036 37.9559 21.8446 37.9559Z" fill="#FFC305"/>
<path d="M21.8446 47.2033C23.2856 47.2033 24.4537 46.0352 24.4537 44.5942C24.4537 43.1533 23.2856 41.9851 21.8446 41.9851C20.4036 41.9851 19.2355 43.1533 19.2355 44.5942C19.2355 46.0352 20.4036 47.2033 21.8446 47.2033Z" fill="#BE5AB9"/>
<path d="M26.4683 42.5796C27.9092 42.5796 29.0774 41.4114 29.0774 39.9704C29.0774 38.5295 27.9092 37.3613 26.4683 37.3613C25.0273 37.3613 23.8591 38.5295 23.8591 39.9704C23.8591 41.4114 25.0273 42.5796 26.4683 42.5796Z" fill="#F73C9A"/>
<path d="M17.2208 42.5796C18.6617 42.5796 19.8299 41.4114 19.8299 39.9704C19.8299 38.5295 18.6617 37.3613 17.2208 37.3613C15.7798 37.3613 14.6116 38.5295 14.6116 39.9704C14.6116 41.4114 15.7798 42.5796 17.2208 42.5796Z" fill="#5AB4FF"/>
</svg>
