<svg width="100" height="100" viewBox="0 0 100 100" fill="none" xmlns="http://www.w3.org/2000/svg">
<path d="M68.3131 27.1812C64.726 27.1812 61.8076 30.0993 61.8076 33.686C61.8076 37.2731 64.726 40.1915 68.3131 40.1915C71.8996 40.1915 74.8174 37.2731 74.8174 33.686C74.8174 30.0991 71.8994 27.1812 68.3131 27.1812ZM68.3131 37.2616C66.3416 37.2616 64.7377 35.6577 64.7377 33.6862C64.7377 31.7149 66.3416 30.1114 68.3131 30.1114C70.284 30.1114 71.8873 31.7149 71.8873 33.6862C71.8873 35.6577 70.2838 37.2616 68.3131 37.2616Z" fill="black"/>
<path d="M85.9857 27.1812C82.3988 27.1812 79.4805 30.0993 79.4805 33.686C79.4805 37.2731 82.3988 40.1915 85.9857 40.1915C89.5723 40.1915 92.4902 37.2731 92.49 33.686C92.49 30.0991 89.5723 27.1812 85.9857 27.1812ZM85.9857 37.2616C84.0145 37.2616 82.4105 35.6577 82.4105 33.6862C82.4105 31.7149 84.0145 30.1114 85.9857 30.1114C87.9566 30.1114 89.5602 31.7149 89.56 33.6862C89.56 35.6577 87.9566 37.2616 85.9857 37.2616Z" fill="black"/>
<path d="M71.9258 42.3665H64.6988C63.5736 42.3665 62.6582 43.2819 62.6582 44.4069V70.7669C62.6582 71.8922 63.5736 72.8075 64.6988 72.8075H71.9258C73.0512 72.8075 73.9664 71.8921 73.9664 70.7667V44.4071C73.9664 43.2819 73.051 42.3665 71.9258 42.3665ZM71.0363 69.8776H65.5883V45.2965H71.0363V69.8776Z" fill="black"/>
<path d="M92.9468 67.9392H94.1843V71.2527H94.6804V67.9392H95.9233V67.4978H92.9468V67.9392Z" fill="black"/>
<path d="M99.3326 67.4978C98.3644 70.3031 98.3224 70.4189 98.2303 70.7109C98.1432 70.4244 98.0865 70.2611 97.1625 67.4978H96.416V71.2527H96.8939V68.0558L97.9789 71.2527H98.4279L99.5207 68.1078V71.2527H99.9996V67.4978H99.3326Z" fill="black"/>
<path d="M90.1742 54.7401C90.9834 54.7401 91.6393 54.0842 91.6393 53.2751V44.4069C91.6393 43.2817 90.7238 42.3665 89.5988 42.3665H82.3717C81.2465 42.3665 80.3311 43.2819 80.3311 44.4069V70.7669C80.3311 71.8922 81.2465 72.8075 82.3717 72.8075H89.5988C90.724 72.8075 91.6393 71.8921 91.6393 70.7667V60.1118C91.6393 59.3026 90.9834 58.6467 90.1742 58.6467C89.365 58.6467 88.7092 59.3026 88.7092 60.1118V69.8774H83.2611V45.2965H88.7092V53.2751C88.7092 54.0842 89.3652 54.7401 90.1742 54.7401Z" fill="black"/>
<path d="M58.1203 29.8643H50.4512C49.5162 29.8643 48.7029 30.4973 48.4729 31.4045L42.4186 55.3315L40.2217 46.8612C40.0186 46.078 39.219 45.6081 38.4357 45.8108C37.6525 46.0141 37.1822 46.8137 37.3854 47.5967L41.018 61.6022C41.1856 62.2483 41.7688 62.6995 42.4361 62.6995C42.4375 62.6995 42.4391 62.6995 42.4404 62.6995C43.1096 62.6975 43.6924 62.2424 43.8565 61.5938L51.1438 32.7946H56.9453L47.3746 66.7094C46.0557 70.9659 39.6727 70.9696 38.402 66.5958C38.2951 66.2424 38.8529 68.2235 31.4918 41.9727C31.0932 40.551 29.0688 40.5528 28.6705 41.9727L21.8906 66.151L21.7572 66.61C20.5027 70.9247 14.1678 70.9979 12.7975 66.7376L3.217 32.7948H9.0125L16.2211 61.9079C16.3822 62.5584 16.9647 63.017 17.6352 63.0207C17.6381 63.0207 17.6406 63.0207 17.6434 63.0207C18.3104 63.0206 18.8938 62.5698 19.0613 61.9233L25.8535 35.7245C26.7061 32.7842 29.5229 32.6354 30.0799 32.6354C30.6369 32.6354 33.4535 32.7833 34.2984 35.6967L35.6688 40.9793C35.8721 41.7629 36.6719 42.2331 37.4547 42.0297C38.2379 41.8264 38.7082 41.0268 38.5051 40.2438L37.1299 34.942C36.3059 31.7196 33.3221 29.7053 30.0803 29.7053C27.5199 29.7053 24.1379 31.0749 23.0324 34.934C23.0256 34.9581 17.6824 55.5682 17.6762 55.5924L11.6895 31.4147C11.4631 30.5024 10.6484 29.8653 9.7086 29.8653H2.04161C0.683402 29.8653 -0.287105 31.1692 0.0779337 32.4602L9.98418 67.5581C9.98848 67.5729 9.99278 67.5877 9.99746 67.6024C12.2234 74.6319 22.5025 74.5411 24.5705 67.4286C24.7645 66.7608 24.2131 68.7202 30.0807 47.795C30.0869 47.8176 35.5106 67.1594 35.5174 67.1819L35.592 67.4286C37.6561 74.5336 47.9356 74.6393 50.1648 67.603V67.6028C50.1939 67.5104 60.058 32.5512 60.0844 32.4581C60.4504 31.1575 59.4697 29.8643 58.1203 29.8643Z" fill="black"/>
</svg>
