<svg width="100" height="100" viewBox="0 0 100 100" fill="none" xmlns="http://www.w3.org/2000/svg">
<g clip-path="url(#clip0)">
<path d="M50.0007 67.4836H66.234C69.1573 67.4836 71.9843 68.5302 74.2046 70.4326L89.8914 83.8854C90.9414 84.7859 92.4778 84.9405 93.6447 84.1999C109.964 73.8714 90.1698 33.1112 86.2464 25.7111C85.8305 24.9258 85.1448 20.6655 84.3113 20.3613L71.1198 15.5649C69.9632 15.1439 68.6761 15.2985 67.6535 15.9808C67.6535 15.9808 63.9346 18.3575 63.1011 18.3575H48.6224H37.3677C36.5342 18.3575 32.3479 15.9808 32.3479 15.9808C31.3236 15.2985 30.0365 15.1439 28.8816 15.5649L15.6901 20.3613C14.8549 20.6655 14.1709 24.9258 13.755 25.7111C9.8316 33.1112 -9.96252 73.8714 6.35672 84.1999C7.52533 84.9388 9.0617 84.7842 10.11 83.8854L25.7968 70.4326C28.0172 68.5302 30.8442 67.4836 33.7674 67.4836H50.0007Z" fill="#38454F"/>
<path d="M63.2181 58.8908C67.0146 58.8908 70.0923 55.8131 70.0923 52.0166C70.0923 48.2201 67.0146 45.1425 63.2181 45.1425C59.4217 45.1425 56.344 48.2201 56.344 52.0166C56.344 55.8131 59.4217 58.8908 63.2181 58.8908Z" fill="#546A79"/>
<path d="M23.6918 41.7055C27.4883 41.7055 30.5659 38.6278 30.5659 34.8313C30.5659 31.0348 27.4883 27.9572 23.6918 27.9572C19.8953 27.9572 16.8176 31.0348 16.8176 34.8313C16.8176 38.6278 19.8953 41.7055 23.6918 41.7055Z" fill="#546A79"/>
<path d="M75.2479 31.3942C77.1462 31.3942 78.685 29.8553 78.685 27.9571C78.685 26.0589 77.1462 24.52 75.2479 24.52C73.3497 24.52 71.8109 26.0589 71.8109 27.9571C71.8109 29.8553 73.3497 31.3942 75.2479 31.3942Z" fill="#EBBA16"/>
<path d="M68.3737 38.2683C70.272 38.2683 71.8108 36.7295 71.8108 34.8312C71.8108 32.933 70.272 31.3942 68.3737 31.3942C66.4755 31.3942 64.9366 32.933 64.9366 34.8312C64.9366 36.7295 66.4755 38.2683 68.3737 38.2683Z" fill="#7383BF"/>
<path d="M82.1221 38.2683C84.0203 38.2683 85.5592 36.7295 85.5592 34.8312C85.5592 32.933 84.0203 31.3942 82.1221 31.3942C80.2238 31.3942 78.685 32.933 78.685 34.8312C78.685 36.7295 80.2238 38.2683 82.1221 38.2683Z" fill="#D75A4A"/>
<path d="M75.2479 45.1425C77.1462 45.1425 78.685 43.6036 78.685 41.7054C78.685 39.8071 77.1462 38.2683 75.2479 38.2683C73.3497 38.2683 71.8109 39.8071 71.8109 41.7054C71.8109 43.6036 73.3497 45.1425 75.2479 45.1425Z" fill="#61B872"/>
<path d="M54.6254 20.1275C54.6254 19.7976 54.5928 19.4745 54.5326 19.1634C54.4725 18.8524 54.3419 18.5826 54.1632 18.3574C52.1507 18.3574 50.5886 18.3574 49.9029 18.3574C49.7568 18.3695 49.6193 18.409 49.4715 18.409C49.322 18.409 49.1845 18.3712 49.0402 18.3574C49.0178 18.3574 48.6243 18.3574 48.6243 18.3574H44.7628C44.6115 18.5533 44.4912 18.7785 44.4328 19.0448C44.2833 19.7288 44.2712 20.4661 44.4328 21.2291C44.859 23.2398 46.538 24.8604 48.5642 25.2058C51.8105 25.7592 54.6254 23.2724 54.6254 20.1275Z" fill="#AFB6BB"/>
<path d="M46.892 47.9833H41.2449V42.3362C41.2449 41.6573 40.6949 41.1091 40.0178 41.1091H35.5995C34.9207 41.1091 34.3724 41.6591 34.3724 42.3362V47.9833H28.7253C28.0465 47.9833 27.4983 48.5332 27.4983 49.2103V53.6287C27.4983 54.3075 28.0482 54.8557 28.7253 54.8557H34.3707V60.5028C34.3707 61.1817 34.9207 61.7299 35.5978 61.7299H40.0161C40.6949 61.7299 41.2432 61.1799 41.2432 60.5028V54.8557H46.8903C47.5691 54.8557 48.1173 54.3058 48.1173 53.6287V49.2103C48.119 48.5332 47.5691 47.9833 46.892 47.9833Z" fill="#546A79"/>
</g>
<defs>
<clipPath id="clip0">
<rect width="100" height="100" fill="white"/>
</clipPath>
</defs>
</svg>
